<svg width="41" height="20" viewBox="0 0 41 20" fill="none" xmlns="http://www.w3.org/2000/svg">
<g id="Discover">
<path id="Stripe" d="M15.5293 19.6767L40.6764 12.0664V15.7061C40.6764 17.899 38.8987 19.6767 36.7058 19.6767H15.5293Z" fill="#FD6020"/>
<path id="DISC-VER" fill-rule="evenodd" clip-rule="evenodd" d="M35.9035 1.05857C37.287 1.05857 38.0479 1.69855 38.0479 2.9074C38.117 3.83182 37.4945 4.61402 36.6644 4.75624L38.5321 7.38728H37.0794L35.4884 4.82735H35.3501V7.38728H34.1741V1.05857H35.9035ZM35.3501 3.97406H35.696C36.4569 3.97406 36.8028 3.61852 36.8028 2.97853C36.8028 2.40966 36.4569 2.05411 35.696 2.05411H35.3501V3.97406ZM30.0929 7.38728H33.4132V6.32065H31.2688V4.61402H33.344V3.54739H31.2688V2.1252H33.4132V1.05857H30.0929V7.38728ZM26.6342 5.32512L25.0432 1.05857H23.798L26.3575 7.5295H26.98L29.5395 1.05857H28.2943L26.6342 5.32512ZM12.592 4.25849C12.592 6.03622 13.9755 7.52951 15.7048 7.52951C16.2582 7.52951 16.7424 7.38729 17.2266 7.17397V5.75178C16.8808 6.17844 16.3965 6.46288 15.8431 6.46288C14.7364 6.46288 13.8371 5.60957 13.8371 4.47182V4.3296C13.7679 3.19185 14.6672 2.19632 15.774 2.12522C16.3274 2.12522 16.8808 2.40965 17.2266 2.83631V1.41412C16.8116 1.12969 16.2582 1.05858 15.774 1.05858C13.9755 0.916359 12.592 2.40965 12.592 4.25849ZM10.4476 3.47629C9.75583 3.19185 9.54831 3.04963 9.54831 2.69409C9.61749 2.26743 9.96336 1.91189 10.3784 1.983C10.7243 1.983 11.0701 2.19632 11.3468 2.48076L11.9694 1.62745C11.4852 1.20079 10.8626 0.916357 10.2401 0.916357C9.27162 0.845248 8.44153 1.62745 8.37236 2.62298V2.69409C8.37236 3.5474 8.71823 4.04516 9.82501 4.40071C10.1017 4.47182 10.3784 4.61404 10.6551 4.75625C10.8626 4.89847 11.001 5.1118 11.001 5.39624C11.001 5.894 10.5859 6.32066 10.1709 6.32066H10.1017C9.54831 6.32066 9.06409 5.96511 8.85657 5.46735L8.09566 6.24955C8.5107 7.03175 9.34079 7.4584 10.1709 7.4584C11.2777 7.52951 12.1769 6.6762 12.2461 5.53846V5.32513C12.1769 4.47182 11.831 4.04516 10.4476 3.47629ZM6.43543 7.38728H7.61139V1.05857H6.43543V7.38728ZM0.970703 1.05857H2.70005H3.04592C4.70609 1.12967 6.0204 2.55186 5.95122 4.25848C5.95122 5.1829 5.53618 6.03621 4.84444 6.67619C4.22188 7.17396 3.46096 7.45839 2.70005 7.38728H0.970703V1.05857ZM2.4926 6.32062C3.04599 6.39173 3.66856 6.1784 4.0836 5.82285C4.49864 5.3962 4.70617 4.82732 4.70617 4.18734C4.70617 3.61847 4.49864 3.04959 4.0836 2.62294C3.66856 2.26739 3.04599 2.05406 2.4926 2.12517H2.14673V6.32062H2.4926Z" fill="white"/>
<path id="O" fill-rule="evenodd" clip-rule="evenodd" d="M20.7543 0.911865C19.0249 0.911865 17.5723 2.33405 17.5723 4.18289C17.5723 5.96062 18.9557 7.45391 20.7543 7.52502C22.5528 7.59613 23.9363 6.10284 24.0054 4.254C23.9363 2.40516 22.5528 0.911865 20.7543 0.911865V0.911865Z" fill="#FD6020"/>
</g>
</svg>
