<svg width="61" height="32" viewBox="0 0 61 32" fill="none" xmlns="http://www.w3.org/2000/svg">
<g id="Group">
<path id="Vector" fill-rule="evenodd" clip-rule="evenodd" d="M26.1012 27.7551C23.5171 29.8774 20.1026 31.1692 16.5034 31.1692C8.01319 31.1692 1.2072 24.3399 1.2072 15.9653C1.2072 7.56744 8.01319 0.738103 16.5034 0.738103C22.1329 0.738103 27.0243 3.78355 29.7004 8.39789C30.0694 8.49024 30.3465 8.58259 30.7152 8.67494C28.0394 3.50685 22.6867 0 16.5034 0C7.64379 0 0.46875 7.10604 0.46875 15.9653C0.46875 24.802 7.64414 32 16.5034 32C20.6564 32 24.4399 30.3391 27.301 27.7551H26.1012Z" fill="#CCCCCC"/>
<path id="Vector_2" fill-rule="evenodd" clip-rule="evenodd" d="M18.5342 27.017H60.4086V20.7415H18.5342V27.017Z" fill="#CCCCCC"/>
<path id="Vector_3" fill-rule="evenodd" clip-rule="evenodd" d="M20.6556 9.50484L20.4709 10.3356H18.4406C17.8869 16.2422 17.5178 21.0175 17.1488 23.2329C16.3183 27.2011 12.6268 29.4158 10.2274 29.4158C9.39698 29.4158 8.38184 29.047 8.38184 28.0319C8.38184 27.4781 8.84324 27.0167 9.39698 27.0167C10.2274 27.0167 10.8735 27.6625 11.3349 28.4006C12.6271 27.6625 12.8115 27.0168 13.3652 24.4324C13.6423 23.2329 14.3804 14.6729 14.7494 10.3356H13.0882L13.2729 9.50484H14.9341L15.1188 8.02863C16.0416 2.58384 20.0099 1.93774 21.4868 1.93774C22.2249 1.93774 23.7014 2.3068 23.7014 3.32194C23.7014 3.9677 23.1477 4.24474 22.5939 4.24474C21.5788 4.24474 21.1174 3.691 20.6556 2.8602C18.9944 3.59865 18.7177 7.65924 18.533 9.5045H20.6556V9.50484ZM20.4713 17.0723C20.4713 12.7353 23.24 8.95143 27.9464 8.95143C30.8998 8.95143 32.5604 10.2436 32.5604 13.1044C32.5604 17.4417 29.792 21.1102 25.0853 21.1102C22.1325 21.1102 20.4713 19.818 20.4713 17.0723ZM28.7772 13.7505C28.7772 12.643 28.6848 9.96693 27.0239 9.96693C24.6246 9.96693 24.2552 14.6733 24.2552 16.4269C24.2552 17.442 24.3475 20.1878 26.0084 20.1878C28.4078 20.1874 28.7772 15.5037 28.7772 13.7505ZM33.5758 17.0723C33.5758 12.7353 36.4369 8.95143 41.1433 8.95143C44.0044 8.95143 45.7343 10.2436 45.7343 13.1044C45.7343 17.4417 42.8965 21.1102 38.1902 21.1102C35.3291 21.1102 33.5758 19.818 33.5758 17.0723ZM41.9737 13.7505C41.9737 12.643 41.8817 9.96693 40.2205 9.96693C37.7288 9.96693 37.4521 14.6733 37.4521 16.4269C37.4521 17.442 37.4521 20.1878 39.113 20.1878C41.6043 20.1874 41.9737 15.5037 41.9737 13.7505ZM60.0391 19.726C58.3775 20.4641 56.3472 21.1099 54.9633 21.1099C54.2252 21.1099 54.3169 20.002 54.3169 19.541C54.3169 18.9879 54.3169 18.2488 54.5019 16.7959L54.4092 16.7032C53.4864 18.6182 51.6408 21.1099 49.2415 21.1099C47.3955 21.1099 46.5647 19.1719 46.5647 17.534C46.5647 13.4731 49.7945 9.13613 54.4092 9.13613H55.332C55.7014 6.27504 55.7014 5.07554 55.7014 4.1524C55.7014 3.87569 55.7014 3.59865 55.4244 3.59865C55.1473 3.59865 54.7786 3.691 53.8555 3.9677L53.6711 3.2296C55.5171 2.58384 57.5474 2.21445 59.3926 2.1221C59.5777 2.1221 59.6697 2.1221 59.6697 2.49115C59.6697 4.8905 57.8237 17.4413 57.8237 18.7109C57.8237 18.9879 57.8237 19.449 58.1931 19.449C58.3775 19.449 59.0239 19.2639 59.762 18.9876L60.0391 19.726ZM54.0398 15.7808C54.6863 14.2119 54.8706 12.643 55.24 10.2436C55.055 10.1509 54.8706 10.1509 54.7786 10.1509C51.9175 10.1509 50.533 14.3962 50.533 16.7032C50.533 17.257 50.6257 18.6182 51.4561 18.6182C52.656 18.6185 53.6711 16.7036 54.0398 15.7808Z" fill="#CCCCCC"/>
<path id="Vector_4" fill-rule="evenodd" clip-rule="evenodd" d="M21.0254 22.2176H22.0405L23.3324 24.1555V22.2176H24.1632V25.9088H23.4247L21.8558 23.7868V25.9088H21.0254V22.2176ZM26.5622 22.2176H29.4233V22.956H27.6697V23.6014H28.7775V24.4322H27.6697V25.078H29.4233V25.9088H26.5622V22.2176ZM32.4691 22.956H31.4539V22.2176H34.5914V22.956H33.5762V25.9088H32.4691V22.956ZM36.4373 22.2176H37.5441L38.0062 24.1555H38.0979L38.5593 22.2176H39.4828L39.9438 24.1555H40.0365L40.4979 22.2176H41.328L40.4052 25.9088H39.4828L38.9287 23.8785L38.3749 25.9088H37.4525L36.4373 22.2176ZM45.0889 26.0015C44.0048 26.0015 43.2663 25.2634 43.2663 24.0632C43.2663 22.8637 44.0044 22.1252 45.0889 22.1252C46.1967 22.1252 46.8422 22.8633 46.8422 24.0632C46.8422 25.263 46.1964 26.0015 45.0889 26.0015ZM44.4432 24.0628C44.4432 25.078 44.7202 25.263 45.0889 25.263C45.4583 25.263 45.7347 25.078 45.7347 24.0628C45.7347 23.0484 45.4583 22.8633 45.0889 22.8633C44.6275 22.8633 44.4432 23.1404 44.4432 24.0628ZM49.0568 22.2176H50.9028C52.1023 22.2176 52.3793 22.7707 52.3793 23.2327C52.3793 23.6941 52.1023 24.0628 51.6412 24.1555L52.3793 25.9088H51.1798L50.6261 24.3399H50.1646V25.9088H49.0568V22.2176ZM50.1646 23.6941H50.7184C50.9948 23.6941 51.2721 23.5091 51.2721 23.3247C51.2721 23.0484 51.0871 22.8633 50.7184 22.8633H50.1646V23.6941ZM54.6866 22.2176H55.7941V23.6941L56.9013 22.2176H57.9164L56.9936 23.4171L58.1008 25.9088H56.9936L56.2555 24.3399L55.7941 24.9863V25.9088H54.6866V22.2176Z" fill="white"/>
</g>
</svg>
