<svg width="67" height="32" viewBox="0 0 67 32" fill="none" xmlns="http://www.w3.org/2000/svg">
<g id="mango-1">
<path id="Vector" fill-rule="evenodd" clip-rule="evenodd" d="M1.50477 4.43037H5.71068C5.33393 4.17352 4.62467 3.84644 3.45718 3.84644C2.61212 3.84644 1.97929 4.08234 1.50477 4.43037ZM6.41683 4.43037H10.816C10.2976 4.08234 9.57204 3.84644 8.55859 3.84644C7.48849 3.84644 6.79591 4.17352 6.41683 4.43037ZM0.911133 5.01431H11.4445C11.2677 4.78722 11.0554 4.59006 10.816 4.43037H6.41683C6.17201 4.59605 6.05793 4.73224 6.05793 4.73224C6.05793 4.73224 5.95318 4.59605 5.71068 4.43037H1.50477C1.28042 4.59613 1.08057 4.79272 0.911133 5.01431Z" fill="#CCCCCC"/>
<path id="Vector_2" fill-rule="evenodd" clip-rule="evenodd" d="M0.55957 5.57865H11.7871C11.6952 5.3782 11.5805 5.18903 11.4453 5.01489H0.911485C0.771805 5.19648 0.655794 5.38776 0.55957 5.57865Z" fill="#CCCCCC"/>
<path id="Vector_3" fill-rule="evenodd" clip-rule="evenodd" d="M0.318499 6.16206H11.9907C11.9405 5.96153 11.8719 5.76606 11.7858 5.57812H0.55867C0.458567 5.77678 0.380191 5.97505 0.318499 6.16206ZM0.166016 6.74639H2.85252C3.02557 6.54541 3.31075 6.36382 3.77673 6.36382C4.24311 6.36382 4.5085 6.54579 4.65904 6.74639H7.63654C7.81231 6.54541 8.10253 6.36382 8.57744 6.36382C9.02596 6.36382 9.29329 6.54579 9.45237 6.74639H12.0892C12.0713 6.54949 12.0382 6.35426 11.9903 6.16245H0.318499C0.255733 6.35378 0.204809 6.5488 0.166016 6.74639Z" fill="#CCCCCC"/>
<path id="Vector_4" fill-rule="evenodd" clip-rule="evenodd" d="M0.0958907 7.31035H2.59654V7.26999C2.59654 7.26999 2.63922 6.99413 2.85262 6.74658H0.166118C0.104815 7.06125 0.0958907 7.26999 0.0958907 7.26999V7.31035ZM4.85741 7.31035H7.37824V7.26999C7.37824 7.26999 7.4213 6.99413 7.63742 6.74658H4.65992C4.77246 6.89969 4.8409 7.08072 4.8578 7.26999V7.31035H4.85741ZM9.67829 7.31035H12.099V7.26999C12.099 7.26999 12.1184 7.06086 12.0897 6.74658H9.45287C9.64764 6.99413 9.67829 7.26999 9.67829 7.26999V7.31035ZM0.0947266 7.89428H2.59654V7.31035H0.0958907L0.0947266 7.89428ZM4.85741 7.89428H7.37824V7.31035H4.85741V7.89428ZM9.67829 7.89428H12.099V7.31035H9.67829V7.89428Z" fill="#CCCCCC"/>
<path id="Vector_5" fill-rule="evenodd" clip-rule="evenodd" d="M0.0943253 8.47896H2.59769V7.89502H0.0958776L0.0943253 8.47896ZM4.85817 8.47896H7.379V7.89502H4.85817V8.47896ZM9.67906 8.47896H12.0998V7.89502H9.67906V8.47896ZM0.0927734 9.04272H2.5973V8.47896H0.0939375L0.0927734 9.04272ZM4.85817 9.04272H7.379V8.47896H4.85817V9.04272ZM9.67906 9.04272H12.0998V8.47896H9.67906V9.04272Z" fill="#CCCCCC"/>
<path id="Vector_6" fill-rule="evenodd" clip-rule="evenodd" d="M0.0919844 9.62617H2.59768V9.04224H0.0927603L0.0919844 9.62617ZM4.85816 9.62617H7.37899V9.04224H4.85816V9.62617ZM9.67904 9.62617H12.0998V9.04224H9.67904V9.62617ZM0.0908203 10.1899H2.59768V9.62617H0.0919844L0.0908203 10.1899ZM4.85816 10.1899H7.37899V9.62617H4.85816V10.1899ZM9.67904 10.1899H12.0998V9.62617H9.67904V10.1899Z" fill="#CCCCCC"/>
<path id="Vector_7" fill-rule="evenodd" clip-rule="evenodd" d="M0.0890547 10.7743H2.59708V10.1899H0.0902188L0.0890547 10.7743ZM4.85795 10.7743H7.37877V10.1899H4.85795V10.7743ZM9.67883 10.7743H12.0996V10.1899H9.67883V10.7743ZM0.0878906 11.3582H2.59747V10.7743H0.0894425L0.0878906 11.3582ZM4.85795 11.3582H7.37877V10.7743H4.85795V11.3582ZM9.67883 11.3582H12.0996V10.7743H9.67883V11.3582Z" fill="#CCCCCC"/>
<path id="Vector_8" fill-rule="evenodd" clip-rule="evenodd" d="M0.0869141 11.9219H2.59765V11.3582H0.0880782L0.0869141 11.9219ZM4.85813 11.9219H7.37896V11.3582H4.85813V11.9219ZM9.67902 11.9219H12.0997V11.3582H9.67902V11.9219Z" fill="#CCCCCC"/>
<path id="Vector_9" fill-rule="evenodd" clip-rule="evenodd" d="M0.0849609 12.5062H2.59686V11.9219H0.0861247L0.0849609 12.5062ZM4.85734 12.5062H7.37817V11.9219H4.85734V12.5062ZM9.67823 12.5062H12.0989V11.9219H9.67823V12.5062Z" fill="#CCCCCC"/>
<path id="Vector_10" fill-rule="evenodd" clip-rule="evenodd" d="M0.0839844 13.0898H2.59744V12.5059H0.0855366L0.0839844 13.0898ZM4.85792 13.0898H7.37875V12.5059H4.85792V13.0898ZM9.6788 13.0898H12.0995V12.5059H9.6788V13.0898Z" fill="#CCCCCC"/>
<path id="Vector_11" fill-rule="evenodd" clip-rule="evenodd" d="M0.0831819 13.6536H2.59741V13.0898H0.0839578L0.0831819 13.6536ZM4.85789 13.6536H7.37872V13.0898H4.85789V13.6536ZM9.67878 13.6536H12.0995V13.0898H9.67878V13.6536ZM0.08163 14.2375H2.59703V13.6536H0.0827941L0.08163 14.2375ZM4.85789 14.2375H7.37872V13.6536H4.85789V14.2375ZM9.67878 14.2375H12.0995V13.6536H9.67878V14.2375ZM0.0800781 14.8219H2.59703V14.2379H0.08163L0.0800781 14.8219ZM4.85789 14.8219H7.37872V14.2379H4.85789V14.8219ZM9.67878 14.8219H12.0995V14.2379H9.67878V14.8219Z" fill="#CCCCCC"/>
<path id="Vector_12" fill-rule="evenodd" clip-rule="evenodd" d="M0.0783125 15.3855H2.59642V14.8218H0.0794766L0.0783125 15.3855ZM4.85729 15.3855H7.37812V14.8218H4.85729V15.3855ZM9.67817 15.3855H12.0989V14.8218H9.67817V15.3855ZM0.0771484 15.9695H2.59642V15.3855H0.0783125L0.0771484 15.9695ZM4.85729 15.9695H7.37812V15.3855H4.85729V15.9695ZM9.67817 15.9695H12.0989V15.3855H9.67817V15.9695Z" fill="#CCCCCC"/>
<path id="Vector_13" fill-rule="evenodd" clip-rule="evenodd" d="M0.0761719 16.5537H2.597V15.9697H0.0777241L0.0761719 16.5537ZM4.85748 16.5537H7.37831V15.9697H4.85748V16.5537ZM9.67836 16.5537H12.0991V15.9697H9.67836V16.5537Z" fill="#CCCCCC"/>
<path id="Vector_14" fill-rule="evenodd" clip-rule="evenodd" d="M0.0753828 17.1172H2.59737V16.5535H0.0765466L0.0753828 17.1172ZM4.85785 17.1172H7.37868V16.5535H4.85785V17.1172ZM9.67874 17.1172H12.0995V16.5535H9.67874V17.1172ZM0.0742188 17.7016H2.59737V17.1172H0.0753828L0.0742188 17.7016ZM4.85785 17.7016H7.37868V17.1172H4.85785V17.7016ZM9.67874 17.7016H12.0995V17.1172H9.67874V17.7016Z" fill="#CCCCCC"/>
<path id="Vector_15" fill-rule="evenodd" clip-rule="evenodd" d="M0.0726407 18.2652H2.59696V17.7014H0.0738044L0.0726407 18.2652ZM4.85783 18.2652H7.37865V17.7014H4.85783V18.2652ZM9.67871 18.2652H12.0994V17.7014H9.67871V18.2652ZM0.0714766 18.8495H2.59735V18.2652H0.0730285L0.0714766 18.8495ZM4.85783 18.8495H7.37865V18.2652H4.85783V18.8495ZM9.67871 18.8495H12.0994V18.2652H9.67871V18.8495ZM0.0703125 19.4331H2.59735V18.8495H0.0714766L0.0703125 19.4331ZM4.85783 19.4331H7.37865V18.8495H4.85783V19.4331ZM9.67871 19.4331H12.0994V18.8495H9.67871V19.4331Z" fill="#CCCCCC"/>
<path id="Vector_16" fill-rule="evenodd" clip-rule="evenodd" d="M0.0685469 19.9979H2.59713V19.4333H0.0700988L0.0685469 19.9979ZM4.85761 19.9979H7.37844V19.4333H4.85761V19.9979ZM9.6785 19.9979H12.0992V19.4333H9.6785V19.9979ZM0.0673828 20.5814H2.59675V19.9979H0.0681588L0.0673828 20.5814ZM4.85761 20.5814H7.37844V19.9979H4.85761V20.5814ZM9.6785 20.5814H12.0992V19.9979H9.6785V20.5814Z" fill="#CCCCCC"/>
<path id="Vector_17" fill-rule="evenodd" clip-rule="evenodd" d="M0.066005 21.1656H2.59653V20.5813H0.0671691L0.066005 21.1656ZM4.8574 21.1656H7.37823V20.5813H4.8574V21.1656ZM9.67828 21.1656H12.099V20.5813H9.67828V21.1656ZM0.0644531 21.7298H2.59653V21.166H0.066005L0.0644531 21.7298ZM4.8574 21.7298H7.37823V21.166H4.8574V21.7298ZM9.67828 21.7298H12.099V21.166H9.67828V21.7298Z" fill="#CCCCCC"/>
<path id="Vector_18" fill-rule="evenodd" clip-rule="evenodd" d="M0.0644531 22.3136H2.5977V21.7292H0.0656172L0.0644531 22.3136ZM4.85818 22.3136H7.379V21.7292H4.85818V22.3136ZM9.67906 22.3136H12.0998V21.7292H9.67906V22.3136Z" fill="#CCCCCC"/>
<path id="Vector_19" fill-rule="evenodd" clip-rule="evenodd" d="M0.0626875 22.897H2.59709V22.3135H0.0638513L0.0626875 22.897ZM4.85796 22.897H7.37879V22.3135H4.85796V22.897ZM9.67884 22.897H12.0996V22.3135H9.67884V22.897ZM0.0615234 23.4608H2.59709V22.897H0.0626875L0.0615234 23.4608ZM4.85796 23.4608H7.37879V22.897H4.85796V23.4608ZM9.67884 23.4608H12.0996V22.897H9.67884V23.4608Z" fill="#CCCCCC"/>
<path id="Vector_20" fill-rule="evenodd" clip-rule="evenodd" d="M0.059945 24.0453H2.59668V23.4609H0.0611091L0.059945 24.0453ZM4.85755 24.0453H7.37838V23.4609H4.85755V24.0453ZM9.67843 24.0453H12.0992V23.4609H9.67843V24.0453ZM0.0591691 24.6296H2.59707V24.0453H0.0603332L0.0591691 24.6296ZM4.85755 24.6296H7.37838V24.0453H4.85755V24.6296ZM9.67843 24.6296H12.0992V24.0453H9.67843V24.6296ZM0.0576172 25.1933H2.59707V24.6296H0.0591691L0.0576172 25.1933ZM4.85755 25.1933H7.37838V24.6296H4.85755V25.1933ZM9.67843 25.1933H12.0992V24.6296H9.67843V25.1933Z" fill="#CCCCCC"/>
<path id="Vector_21" fill-rule="evenodd" clip-rule="evenodd" d="M0.0566406 25.7767H2.59726V25.1931H0.0578047L0.0566406 25.7767ZM4.85774 25.7767H7.37856V25.1931H4.85774V25.7767ZM9.67862 25.7767H12.0993V25.1931H9.67862V25.7767Z" fill="#CCCCCC"/>
<path id="Vector_22" fill-rule="evenodd" clip-rule="evenodd" d="M30.7246 3.60493H31.0548L30.7246 3.021V3.60493ZM30.7246 4.20905H31.397L31.0548 3.60493H30.7246V4.20905Z" fill="#CCCCCC"/>
<path id="Vector_23" fill-rule="evenodd" clip-rule="evenodd" d="M30.7246 4.8131H31.7388L31.397 4.20898H30.7246V4.8131ZM35.6258 4.8131H37.9864V4.22916H35.6258V4.8131Z" fill="#CCCCCC"/>
<path id="Vector_24" fill-rule="evenodd" clip-rule="evenodd" d="M30.7246 5.41773H32.0811L31.7388 4.81323H30.7246V5.41773ZM35.6258 5.41773H37.9864V4.81323H35.6258V5.41773Z" fill="#CCCCCC"/>
<path id="Vector_25" fill-rule="evenodd" clip-rule="evenodd" d="M30.7246 6.00142H32.4112L32.0811 5.41748H30.7246V6.00142ZM35.6258 6.00142H37.9864V5.41748H35.6258V6.00142Z" fill="#CCCCCC"/>
<path id="Vector_26" fill-rule="evenodd" clip-rule="evenodd" d="M30.7246 6.60558H32.7535L32.4112 6.00146H30.7246V6.60558ZM35.6258 6.60558H37.9864V6.00146H35.6258V6.60558ZM30.7246 7.20969H33.0953L32.7535 6.60558H30.7246V7.20969ZM35.6258 7.20969H37.9864V6.60558H35.6258V7.20969Z" fill="#CCCCCC"/>
<path id="Vector_27" fill-rule="evenodd" clip-rule="evenodd" d="M30.724 7.81344H33.4369L33.0947 7.20972H30.724V7.81344ZM35.6252 7.81344H37.9858V7.20972H35.6252V7.81344ZM30.724 8.39777H33.7671L33.4365 7.81344H30.7236V8.39777H30.724ZM35.6252 8.39777H37.9858V7.81344H35.6252V8.39777Z" fill="#CCCCCC"/>
<path id="Vector_28" fill-rule="evenodd" clip-rule="evenodd" d="M30.7246 9.00231H34.1095L33.7677 8.39819H30.7246V9.00231ZM35.6258 9.00231H37.9864V8.39819H35.6258V9.00231ZM30.7246 9.60642H34.4521L34.1095 9.00231H30.7246V9.60642ZM35.6258 9.60642H37.9864V9.00231H35.6258V9.60642Z" fill="#CCCCCC"/>
<path id="Vector_29" fill-rule="evenodd" clip-rule="evenodd" d="M30.7246 10.2105H34.7939L34.4521 9.60596H30.7246V10.2105ZM35.6258 10.2105H37.9864V9.60596H35.6258V10.2105Z" fill="#CCCCCC"/>
<path id="Vector_30" fill-rule="evenodd" clip-rule="evenodd" d="M30.7246 10.7939H35.1241L34.7936 10.21H30.7246V10.7939ZM35.6258 10.7939H37.9864V10.21H35.6258V10.7939ZM30.7246 11.398H35.466L35.1241 10.7939H30.7246V11.398ZM35.6258 11.398H37.9864V10.7939H35.6258V11.398Z" fill="#CCCCCC"/>
<path id="Vector_31" fill-rule="evenodd" clip-rule="evenodd" d="M30.7246 12.0023H37.9864V11.3982H35.6258V11.6807L35.466 11.3982H30.7246V12.0023ZM30.7246 12.6064H33.0448V12.0628L33.3948 12.6064H37.9864V12.0023H30.7246V12.6064Z" fill="#CCCCCC"/>
<path id="Vector_32" fill-rule="evenodd" clip-rule="evenodd" d="M30.7246 13.1909H33.0448V12.6069H30.7246V13.1909ZM33.77 13.1909H37.9864V12.6069H33.3948L33.77 13.1909Z" fill="#CCCCCC"/>
<path id="Vector_33" fill-rule="evenodd" clip-rule="evenodd" d="M30.7246 13.795H33.0448V13.1909H30.7246V13.795ZM34.1588 13.795H37.9864V13.1909H33.77L34.1588 13.795Z" fill="#CCCCCC"/>
<path id="Vector_34" fill-rule="evenodd" clip-rule="evenodd" d="M30.7246 14.3988H33.0448V13.7947H30.7246V14.3988ZM34.5476 14.3988H37.9864V13.7947H34.1588L34.5476 14.3988Z" fill="#CCCCCC"/>
<path id="Vector_35" fill-rule="evenodd" clip-rule="evenodd" d="M30.7246 14.983H33.0448V14.3987H30.7246V14.983ZM34.9228 14.983H37.9864V14.3987H34.5476L34.9228 14.983Z" fill="#CCCCCC"/>
<path id="Vector_36" fill-rule="evenodd" clip-rule="evenodd" d="M30.7246 15.5873H33.0448V14.9832H30.7246V15.5873ZM35.3111 15.5873H37.9864V14.9832H34.9228L35.3111 15.5873Z" fill="#CCCCCC"/>
<path id="Vector_37" fill-rule="evenodd" clip-rule="evenodd" d="M30.7246 16.1913H33.0448V15.5872H30.7246V16.1913ZM35.6999 16.1913H37.9864V15.5872H35.3111L35.6999 16.1913ZM30.7246 16.7954H33.0448V16.1913H30.7246V16.7954ZM35.7259 16.7954H37.9864V16.1913H35.6999L35.7255 16.2316V16.7954H35.7259ZM30.7246 17.3797H33.0448V16.7954H30.7246V17.3797ZM35.7259 17.3797H37.9864V16.7954H35.7259V17.3797Z" fill="#CCCCCC"/>
<path id="Vector_38" fill-rule="evenodd" clip-rule="evenodd" d="M30.7246 17.983H33.0448V17.3789H30.7246V17.983ZM35.7259 17.983H37.9864V17.3789H35.7259V17.983ZM30.7246 18.5871H33.0448V17.983H30.7246V18.5871ZM35.7259 18.5871H37.9864V17.983H35.7259V18.5871Z" fill="#CCCCCC"/>
<path id="Vector_39" fill-rule="evenodd" clip-rule="evenodd" d="M30.7246 19.1921H33.0448V18.5872H30.7246V19.1921ZM35.7259 19.1921H37.9864V18.5872H35.7259V19.1921Z" fill="#CCCCCC"/>
<path id="Vector_40" fill-rule="evenodd" clip-rule="evenodd" d="M30.7246 19.7757H33.0448V19.1921H30.7246V19.7757ZM35.7259 19.7757H37.9864V19.1921H35.7259V19.7757ZM30.7246 20.3806H33.0448V19.7757H30.7246V20.3806ZM35.7259 20.3806H37.9864V19.7757H35.7259V20.3806Z" fill="#CCCCCC"/>
<path id="Vector_41" fill-rule="evenodd" clip-rule="evenodd" d="M30.7246 20.9847H33.0448V20.3806H30.7246V20.9847ZM35.7259 20.9847H37.9864V20.3806H35.7259V20.9847Z" fill="#CCCCCC"/>
<path id="Vector_42" fill-rule="evenodd" clip-rule="evenodd" d="M30.7246 21.588H33.0448V20.9839H30.7246V21.588ZM35.7259 21.588H37.9864V20.9839H35.7259V21.588ZM30.7246 22.1723H33.0448V21.588H30.7246V22.1723ZM35.7259 22.1723H37.9864V21.588H35.7259V22.1723Z" fill="#CCCCCC"/>
<path id="Vector_43" fill-rule="evenodd" clip-rule="evenodd" d="M30.7246 22.777H33.0448V22.1729H30.7246V22.777ZM35.7259 22.777H37.9864V22.1729H35.7259V22.777Z" fill="#CCCCCC"/>
<path id="Vector_44" fill-rule="evenodd" clip-rule="evenodd" d="M30.7246 23.3802H33.0448V22.7761H30.7246V23.3802ZM35.7259 23.3802H37.9864V22.7761H35.7259V23.3802Z" fill="#CCCCCC"/>
<path id="Vector_45" fill-rule="evenodd" clip-rule="evenodd" d="M30.7246 23.9847H33.0448V23.3806H30.7246V23.9847ZM35.7259 23.9847H37.9864V23.3806H35.7259V23.9847Z" fill="#CCCCCC"/>
<path id="Vector_46" fill-rule="evenodd" clip-rule="evenodd" d="M30.7246 24.5689H33.0448V23.9846H30.7246V24.5689ZM35.7259 24.5689H37.9864V23.9846H35.7259V24.5689ZM30.7246 25.1731H33.0448V24.5689H30.7246V25.1731ZM35.7259 25.1731H37.9864V24.5689H35.7259V25.1731Z" fill="#CCCCCC"/>
<path id="Vector_47" fill-rule="evenodd" clip-rule="evenodd" d="M30.7246 25.777H33.0448V25.1729H30.7246V25.777ZM35.7259 25.777H37.9864V25.1729H35.7259V25.777Z" fill="#CCCCCC"/>
<path id="Vector_48" fill-rule="evenodd" clip-rule="evenodd" d="M51.957 0.846225H53.8097V0C53.8097 0 53.064 0.255303 51.957 0.846225Z" fill="#CCCCCC"/>
<path id="Vector_49" fill-rule="evenodd" clip-rule="evenodd" d="M50.5244 1.69164H53.8096V0.846191H51.9569C51.4675 1.10726 50.9895 1.38934 50.5244 1.69164Z" fill="#CCCCCC"/>
<path id="Vector_50" fill-rule="evenodd" clip-rule="evenodd" d="M49.3514 2.51756H53.8102V1.69189H50.525C50.1239 1.95275 49.7324 2.22816 49.3514 2.51756ZM48.3162 3.36339H53.8102V2.51756H49.3514C48.9966 2.7874 48.6513 3.06951 48.3162 3.36339ZM47.416 4.20923H52.9194C53.4657 3.95276 53.8106 3.84684 53.8106 3.84684V3.36339H48.3166C48.0067 3.63489 47.7064 3.917 47.416 4.20923Z" fill="#CCCCCC"/>
<path id="Vector_51" fill-rule="evenodd" clip-rule="evenodd" d="M46.6281 5.05472H51.4168C51.8965 4.737 52.3985 4.45419 52.9188 4.2085H47.4154C47.1438 4.48191 46.8813 4.76413 46.6281 5.05472ZM45.9395 5.90056H50.2815C50.6437 5.59749 51.0227 5.31522 51.4168 5.05511H46.6281C46.3895 5.32937 46.1598 5.61133 45.9395 5.90056Z" fill="#CCCCCC"/>
<path id="Vector_52" fill-rule="evenodd" clip-rule="evenodd" d="M45.3342 6.74647H49.3678C49.6576 6.44905 49.9624 6.16673 50.2812 5.90063H45.9391C45.7285 6.17604 45.5267 6.45813 45.3342 6.74647ZM44.8174 7.57213H48.6345C48.8663 7.28578 49.1111 7.01026 49.3682 6.74647H45.3346C45.1561 7.01225 44.9842 7.28734 44.8174 7.57213Z" fill="#CCCCCC"/>
<path id="Vector_53" fill-rule="evenodd" clip-rule="evenodd" d="M44.3565 8.41761H48.0083C48.2048 8.12671 48.4139 7.8445 48.6349 7.57178H44.8178C44.6558 7.84918 44.502 8.13124 44.3565 8.41761ZM43.958 9.26384H47.4888C47.6556 8.96741 47.8291 8.68572 48.0087 8.418H44.3569C44.2172 8.69193 44.0837 8.97362 43.958 9.26384Z" fill="#CCCCCC"/>
<path id="Vector_54" fill-rule="evenodd" clip-rule="evenodd" d="M43.6172 10.1095H47.0583C47.1911 9.82225 47.3346 9.5401 47.4886 9.26367H43.9578C43.8366 9.54245 43.723 9.8245 43.6172 10.1095Z" fill="#CCCCCC"/>
<path id="Vector_55" fill-rule="evenodd" clip-rule="evenodd" d="M43.3303 10.955H46.7062C46.8153 10.6624 46.9328 10.38 47.0578 10.1091H43.6166C43.5153 10.3846 43.4199 10.6667 43.3303 10.955ZM43.0986 11.7806H46.4269C46.5134 11.4962 46.6065 11.2211 46.7066 10.955H43.3307C43.2461 11.2281 43.1687 11.5034 43.0986 11.7806Z" fill="#CCCCCC"/>
<path id="Vector_56" fill-rule="evenodd" clip-rule="evenodd" d="M42.9056 12.6264H46.2036C46.2711 12.3357 46.3452 12.0537 46.4271 11.7805H43.0989C43.0273 12.0608 42.9629 12.3428 42.9056 12.6264ZM42.7578 13.4722H46.0337C46.083 13.182 46.1396 12.9003 46.2036 12.6264H42.9056C42.8502 12.903 42.8009 13.1851 42.7578 13.4722Z" fill="#CCCCCC"/>
<path id="Vector_57" fill-rule="evenodd" clip-rule="evenodd" d="M42.6507 14.318H45.9138C45.9464 14.0286 45.9867 13.7465 46.0329 13.4722H42.757C42.715 13.7533 42.6796 14.0353 42.6507 14.318ZM42.5805 15.1638H45.8412C45.8587 14.8752 45.8827 14.5931 45.9142 14.318H42.6511C42.6214 14.5994 42.5978 14.8814 42.5805 15.1638ZM42.5518 15.9895H45.8109C45.8148 15.7086 45.8245 15.4331 45.8412 15.1642H42.5805C42.5653 15.4391 42.5557 15.7142 42.5518 15.9895Z" fill="#CCCCCC"/>
<path id="Vector_58" fill-rule="evenodd" clip-rule="evenodd" d="M42.5544 16.8351H45.8206C45.8127 16.6338 45.8086 16.4324 45.8086 16.231C45.8086 16.1499 45.8101 16.07 45.8117 15.9893H42.5525C42.551 16.1029 42.5479 16.2166 42.5479 16.3319C42.5479 16.5018 42.551 16.6694 42.5544 16.8351ZM50.5495 16.8351H53.8103V16.3319H50.5495V16.8351Z" fill="#CCCCCC"/>
<path id="Vector_59" fill-rule="evenodd" clip-rule="evenodd" d="M42.5978 17.6818H45.8798C45.8522 17.4002 45.8325 17.1179 45.8209 16.8352H42.5547C42.5628 17.1223 42.5772 17.4044 42.5978 17.6818ZM50.5494 17.6818H53.8101V16.8352H50.5494V17.6818Z" fill="#CCCCCC"/>
<path id="Vector_60" fill-rule="evenodd" clip-rule="evenodd" d="M42.6764 18.528H45.9895C45.9442 18.2472 45.9076 17.9651 45.8797 17.6821H42.5977C42.6178 17.9685 42.6438 18.2513 42.6764 18.528ZM50.5493 18.528H53.81V17.6821H50.5493V18.528Z" fill="#CCCCCC"/>
<path id="Vector_61" fill-rule="evenodd" clip-rule="evenodd" d="M42.8017 19.3732H46.1536C46.0902 19.093 46.0356 18.8109 45.9899 18.5273H42.6768C42.7117 18.8149 42.754 19.0965 42.8017 19.3732ZM50.5496 19.3732H53.8104V18.5273H50.5496V19.3732Z" fill="#CCCCCC"/>
<path id="Vector_62" fill-rule="evenodd" clip-rule="evenodd" d="M42.9709 20.2189H46.3764C46.2928 19.9395 46.2186 19.6574 46.1537 19.373H42.8018C42.8518 19.6609 42.9081 19.943 42.9709 20.2189ZM50.5497 20.2189H53.8104V19.373H50.5497V20.2189Z" fill="#CCCCCC"/>
<path id="Vector_63" fill-rule="evenodd" clip-rule="evenodd" d="M43.1806 21.0443H46.6536C46.5516 20.7725 46.4591 20.4972 46.3762 20.219H42.9707C43.0343 20.5003 43.1038 20.7754 43.1806 21.0443ZM50.5495 21.0443H53.8102V20.219H50.5495V21.0443ZM43.4464 21.8909H47.0059C46.8786 21.6129 46.761 21.3305 46.6536 21.0443H43.1806C43.2625 21.3329 43.3509 21.6158 43.4464 21.8909ZM50.5495 21.8909H53.8102V21.0443H50.5495V21.8909Z" fill="#CCCCCC"/>
<path id="Vector_64" fill-rule="evenodd" clip-rule="evenodd" d="M43.7677 22.7365H47.4332C47.2798 22.46 47.137 22.1778 47.0048 21.8906H43.4453C43.5466 22.1797 43.6541 22.4614 43.7677 22.7365ZM50.5488 22.7365H53.8095V21.8906H50.5488V22.7365Z" fill="#CCCCCC"/>
<path id="Vector_65" fill-rule="evenodd" clip-rule="evenodd" d="M44.1511 23.5824H47.9477C47.7655 23.3072 47.5942 23.0251 47.434 22.7366H43.7686C43.8888 23.026 44.0169 23.3081 44.1511 23.5824ZM50.5492 23.5824H53.81V22.7366H50.5492V23.5824Z" fill="#CCCCCC"/>
<path id="Vector_66" fill-rule="evenodd" clip-rule="evenodd" d="M44.5991 24.4279H48.5617C48.3452 24.1548 48.1404 23.8726 47.9479 23.582H44.1514C44.2938 23.873 44.4439 24.1543 44.5991 24.4279ZM50.5495 24.4279H53.8102V23.582H50.5495V24.4279Z" fill="#CCCCCC"/>
<path id="Vector_67" fill-rule="evenodd" clip-rule="evenodd" d="M45.105 25.2533H49.2775C49.0264 24.9891 48.7874 24.7138 48.5613 24.428H44.5986C44.7582 24.7086 44.9271 24.9838 45.105 25.2533ZM50.549 25.2533H53.8097V24.428H50.549V25.2533Z" fill="#CCCCCC"/>
<path id="Vector_68" fill-rule="evenodd" clip-rule="evenodd" d="M45.7034 26.0993H50.182C49.8641 25.8353 49.5622 25.5526 49.278 25.2527H45.1055C45.2954 25.5414 45.4948 25.8238 45.7034 26.0993ZM50.5495 26.0993H53.8102V25.2527H50.5495V26.0993Z" fill="#CCCCCC"/>
<path id="Vector_69" fill-rule="evenodd" clip-rule="evenodd" d="M46.3903 26.9454H53.81V26.0996H50.5492V26.3817C50.5492 26.3817 50.4115 26.2886 50.1818 26.0996H45.7031C45.9225 26.3892 46.1517 26.6713 46.3903 26.9454Z" fill="#CCCCCC"/>
<path id="Vector_70" fill-rule="evenodd" clip-rule="evenodd" d="M47.181 27.7911H53.8103V26.9453H46.3906C46.649 27.2425 46.9136 27.5234 47.181 27.7911Z" fill="#CCCCCC"/>
<path id="Vector_71" fill-rule="evenodd" clip-rule="evenodd" d="M48.0925 28.6366H53.81V27.7908H47.1807C47.4745 28.0834 47.7786 28.3655 48.0925 28.6366Z" fill="#CCCCCC"/>
<path id="Vector_72" fill-rule="evenodd" clip-rule="evenodd" d="M49.1489 29.4826H53.8103V28.6367H48.0928C48.434 28.9319 48.7863 29.214 49.1489 29.4826ZM50.3567 30.3086H53.8099V29.4826H49.1485C49.5406 29.7732 49.9436 30.0487 50.3567 30.3086ZM51.8467 31.1544H53.8103V30.3086H50.3571C50.8926 30.6442 51.397 30.9255 51.8467 31.1544Z" fill="#CCCCCC"/>
<path id="Vector_73" fill-rule="evenodd" clip-rule="evenodd" d="M53.8103 32.0001V31.1543H51.8467C53.0153 31.7495 53.8103 32.0001 53.8103 32.0001Z" fill="#CCCCCC"/>
<path id="Vector_74" fill-rule="evenodd" clip-rule="evenodd" d="M59.3516 17.158H61.7319V16.9966H59.3516V17.158ZM64.5131 17.158H66.9936V16.9966H64.5131V17.158ZM59.3516 17.7415H61.7319V17.158H59.3516V17.7415ZM64.5131 17.7415H66.9936V17.158H64.5131V17.7415Z" fill="#CCCCCC"/>
<path id="Vector_75" fill-rule="evenodd" clip-rule="evenodd" d="M59.3516 18.3263H61.7319V17.7419H59.3516V18.3263ZM64.5131 18.3263H66.9936V17.7419H64.5131V18.3263Z" fill="#CCCCCC"/>
<path id="Vector_76" fill-rule="evenodd" clip-rule="evenodd" d="M59.3516 18.9095H61.7319V18.3259H59.3516V18.9095ZM64.5131 18.9095H66.9936V18.3259H64.5131V18.9095ZM59.3516 19.4938H61.7319V18.9095H59.3516V19.4938ZM64.5131 19.4938H66.9936V18.9095H64.5131V19.4938Z" fill="#CCCCCC"/>
<path id="Vector_77" fill-rule="evenodd" clip-rule="evenodd" d="M59.3516 20.0782H61.7319V19.4939H59.3516V20.0782ZM64.5131 20.0782H66.9936V19.4939H64.5131V20.0782ZM59.3516 20.6625H61.7319V20.0782H59.3516V20.6625ZM64.5131 20.6625H66.9936V20.0782H64.5131V20.6625Z" fill="#CCCCCC"/>
<path id="Vector_78" fill-rule="evenodd" clip-rule="evenodd" d="M59.3516 21.2457H61.7319V20.6621H59.3516V21.2457ZM64.5131 21.2457H66.9936V20.6621H64.5131V21.2457ZM59.3516 21.8498H61.7319V21.2457H59.3516V21.8498ZM64.5131 21.8498H66.9936V21.2457H64.5131V21.8498ZM59.3516 22.4341H61.7319V21.8498H59.3516V22.4341ZM64.5131 22.4341H66.9936V21.8498H64.5131V22.4341Z" fill="#CCCCCC"/>
<path id="Vector_79" fill-rule="evenodd" clip-rule="evenodd" d="M59.4102 23.0184H61.9927C61.7812 22.7243 61.732 22.4341 61.732 22.4341H59.3516C59.3516 22.4341 59.3481 22.6696 59.4102 23.0184ZM64.4072 23.0184H66.9521C66.9808 22.8244 66.9909 22.6653 66.9936 22.5629V22.4341H64.5131C64.5131 22.4341 64.5419 22.7243 64.4072 23.0184ZM59.5603 23.602H62.984C62.4816 23.5298 62.1762 23.2729 61.9927 23.0184H59.4102C59.4412 23.1903 59.4882 23.3897 59.5603 23.602ZM63.5606 23.602H66.819C66.885 23.3897 66.9257 23.1903 66.9517 23.0184H64.4068C64.2904 23.2729 64.0503 23.5298 63.5606 23.602Z" fill="#CCCCCC"/>
<path id="Vector_80" fill-rule="evenodd" clip-rule="evenodd" d="M59.8143 24.1864H66.5837C66.6854 23.9885 66.7618 23.7902 66.8192 23.6021H63.5608C63.3696 23.6299 63.1754 23.6299 62.9842 23.6021H59.5605C59.6242 23.7898 59.7064 23.9885 59.8143 24.1864Z" fill="#CCCCCC"/>
<path id="Vector_81" fill-rule="evenodd" clip-rule="evenodd" d="M60.2207 24.7706H66.1966C66.3472 24.591 66.4771 24.395 66.5839 24.1863H59.8145C59.9279 24.3954 60.0642 24.5914 60.2207 24.7706ZM60.9055 25.3542H65.5312C65.781 25.1941 66.0054 24.9974 66.1966 24.7706H60.2207C60.4192 24.9975 60.6499 25.1942 60.9055 25.3542Z" fill="#CCCCCC"/>
<path id="Vector_82" fill-rule="evenodd" clip-rule="evenodd" d="M65.531 25.3538H60.9053C61.4601 25.7022 62.2117 25.9381 63.2325 25.9381C64.2483 25.9381 64.9901 25.7026 65.531 25.3538Z" fill="#CCCCCC"/>
<path id="Vector_83" fill-rule="evenodd" clip-rule="evenodd" d="M60.8932 4.26948H65.4696C64.9155 3.92029 64.1609 3.68555 63.1327 3.68555C62.1549 3.68516 61.4305 3.92029 60.8932 4.26948ZM60.2285 4.85342H66.1509C65.954 4.6261 65.7244 4.4293 65.4696 4.26948H60.8932C60.6443 4.43066 60.4204 4.6274 60.2285 4.85342Z" fill="#CCCCCC"/>
<path id="Vector_84" fill-rule="evenodd" clip-rule="evenodd" d="M59.8308 5.43745H66.5494C66.4385 5.22875 66.3048 5.03292 66.1509 4.85352H60.2285C60.0756 5.03345 59.9422 5.2292 59.8308 5.43745ZM59.5775 6.02139H66.7962C66.7312 5.81983 66.6485 5.62442 66.549 5.43745H59.8305C59.7303 5.62487 59.6457 5.82017 59.5775 6.02139ZM59.4238 6.60572H61.9489C62.1348 6.33373 62.477 6.08192 63.1121 6.08192C63.7578 6.08192 64.1058 6.33334 64.2928 6.60572H66.9398C66.9068 6.40775 66.8589 6.21255 66.7966 6.02178H59.5779C59.513 6.21261 59.4616 6.40773 59.4238 6.60572Z" fill="#CCCCCC"/>
<path id="Vector_85" fill-rule="evenodd" clip-rule="evenodd" d="M59.3532 7.18931H61.7375C61.7604 6.98057 61.8329 6.78034 61.9489 6.60537H59.4239C59.373 6.87115 59.3579 7.08105 59.3532 7.18931ZM64.5074 7.18931H66.9937V7.14314C66.988 6.96273 66.97 6.78293 66.9398 6.60498H64.2928C64.448 6.82963 64.4934 7.06825 64.5074 7.18931ZM59.3517 7.79342H61.7321V7.26962C61.7321 7.26962 61.7321 7.23936 61.7375 7.18931H59.3532C59.3509 7.24091 59.3517 7.26962 59.3517 7.26962V7.79342ZM64.5132 7.79342H66.9937V7.18931H64.5074C64.5136 7.23936 64.5136 7.26962 64.5136 7.26962V7.79342H64.5132Z" fill="#CCCCCC"/>
<path id="Vector_86" fill-rule="evenodd" clip-rule="evenodd" d="M59.3516 8.37778H61.7319V7.79346H59.3516V8.37778ZM64.5131 8.37778H66.9936V7.79346H64.5131V8.37778ZM59.3516 8.96172H61.7319V8.37778H59.3516V8.96172ZM64.5131 8.96172H66.9936V8.37778H64.5131V8.96172Z" fill="#CCCCCC"/>
<path id="Vector_87" fill-rule="evenodd" clip-rule="evenodd" d="M59.3516 9.54536H61.7319V8.96143H59.3516V9.54536ZM64.5131 9.54536H66.9936V8.96143H64.5131V9.54536ZM59.3516 10.1297H61.7319V9.54575H59.3516V10.1297ZM64.5131 10.1297H66.9936V9.54575H64.5131V10.1297Z" fill="#CCCCCC"/>
<path id="Vector_88" fill-rule="evenodd" clip-rule="evenodd" d="M59.3516 10.7138H61.7319V10.1299H59.3516V10.7138ZM64.5131 10.7138H66.9936V10.1299H64.5131V10.7138ZM59.3516 11.2978H61.7319V10.7138H59.3516V11.2978ZM64.5131 11.2978H66.9936V10.7138H64.5131V11.2978ZM59.3516 11.8817H61.7319V11.2978H59.3516V11.8817ZM64.5131 11.8817H66.9936V11.2978H64.5131V11.8817Z" fill="#CCCCCC"/>
<path id="Vector_89" fill-rule="evenodd" clip-rule="evenodd" d="M59.3516 12.4655H61.7319V11.8816H59.3516V12.4655ZM64.5131 12.4655H66.9936V11.8816H64.5131V12.4655Z" fill="#CCCCCC"/>
<path id="Vector_90" fill-rule="evenodd" clip-rule="evenodd" d="M59.3516 13.0497H61.7319V12.4653H59.3516V13.0497ZM64.5131 13.0497H66.9936V12.4653H64.5131V13.0497Z" fill="#CCCCCC"/>
<path id="Vector_91" fill-rule="evenodd" clip-rule="evenodd" d="M59.3516 13.6335H61.7319V13.0496H59.3516V13.6335ZM64.5131 13.6335H66.9936V13.0496H64.5131V13.6335ZM59.3516 14.2178H61.7319V13.6339H59.3516V14.2178ZM64.5131 14.2178H66.9936V13.6339H64.5131V14.2178ZM59.3516 14.8219H61.7319V14.2178H59.3516V14.8219ZM64.5131 14.8219H66.9936V14.2178H64.5131V14.8219Z" fill="#CCCCCC"/>
<path id="Vector_92" fill-rule="evenodd" clip-rule="evenodd" d="M59.3516 15.4057H61.7319V14.8218H59.3516V15.4057ZM64.5131 15.4057H66.9936V14.8218H64.5131V15.4057ZM59.3516 15.9897H61.7319V15.4057H59.3516V15.9897ZM64.5131 15.9897H66.9936V15.4057H64.5131V15.9897Z" fill="#CCCCCC"/>
<path id="Vector_93" fill-rule="evenodd" clip-rule="evenodd" d="M59.3516 16.5736H61.7319V15.9893H59.3516V16.5736ZM64.5131 16.5736H66.9936V15.9893H64.5131V16.5736ZM66.9936 16.9965V16.5736H64.5131V16.9965H66.9936ZM61.7319 16.5736H59.3516V16.9965H61.7319V16.5736Z" fill="#CCCCCC"/>
<path id="Vector_94" fill-rule="evenodd" clip-rule="evenodd" d="M19.439 4.43037H24.0512C23.5103 4.08234 22.7665 3.84644 21.7426 3.84644C20.7233 3.84644 19.9807 4.08234 19.439 4.43037ZM18.7725 5.01431H24.7139C24.5239 4.78698 24.3003 4.59005 24.0508 4.43037H19.439C19.1887 4.59035 18.964 4.78722 18.7725 5.01431Z" fill="#CCCCCC"/>
<path id="Vector_95" fill-rule="evenodd" clip-rule="evenodd" d="M18.3955 5.57865H25.0854C24.9826 5.37764 24.8579 5.18858 24.7137 5.01489H18.7719C18.6262 5.18853 18.5 5.37758 18.3955 5.57865Z" fill="#CCCCCC"/>
<path id="Vector_96" fill-rule="evenodd" clip-rule="evenodd" d="M18.1557 6.16206H25.3205C25.26 5.96074 25.1815 5.76529 25.0858 5.57812H18.3959C18.2988 5.76531 18.2184 5.96072 18.1557 6.16206ZM18.0215 6.74639H20.6541C20.8353 6.50156 21.1689 6.26294 21.7824 6.26294C22.4152 6.26294 22.75 6.50156 22.9262 6.74639H25.4489C25.4215 6.54871 25.3787 6.35348 25.3209 6.16245H18.1557C18.0886 6.37702 18.0471 6.57683 18.0215 6.74639Z" fill="#CCCCCC"/>
<path id="Vector_97" fill-rule="evenodd" clip-rule="evenodd" d="M17.9809 7.31035H20.4416V7.26999C20.4416 7.26999 20.4629 7.0046 20.6538 6.74658H18.0212C17.9735 7.06125 17.9809 7.26999 17.9809 7.26999V7.31035ZM23.1223 7.31035H25.4828V7.14428C25.4788 7.01117 25.4673 6.87839 25.4483 6.74658H22.9255C23.1118 7.0046 23.1223 7.26999 23.1223 7.26999V7.31035ZM17.9809 7.89428H20.4416V7.31035H17.9809V7.89428ZM23.1223 7.89428H25.4828V7.31035H23.1223V7.89428Z" fill="#CCCCCC"/>
<path id="Vector_98" fill-rule="evenodd" clip-rule="evenodd" d="M17.9814 8.47896H20.4421V7.89502H17.9814V8.47896ZM23.1228 8.47896H25.4834V7.89502H23.1228V8.47896ZM17.9814 9.04272H20.4421V8.47896H17.9814V9.04272ZM23.1228 9.04272H25.4834V8.47896H23.1228V9.04272Z" fill="#CCCCCC"/>
<path id="Vector_99" fill-rule="evenodd" clip-rule="evenodd" d="M17.9814 9.62617H20.4421V9.04224H17.9814V9.62617ZM23.1228 9.62617H25.4834V9.04224H23.1228V9.62617ZM17.9814 10.1899H20.4421V9.62617H17.9814V10.1899ZM23.1228 10.1899H25.4834V9.62617H23.1228V10.1899Z" fill="#CCCCCC"/>
<path id="Vector_100" fill-rule="evenodd" clip-rule="evenodd" d="M17.9814 10.7743H20.4421V10.1899H17.9814V10.7743ZM23.1228 10.7743H25.4834V10.1899H23.1228V10.7743ZM17.9814 11.3582H20.4421V10.7743H17.9814V11.3582ZM23.1228 11.3582H25.4834V10.7743H23.1228V11.3582Z" fill="#CCCCCC"/>
<path id="Vector_101" fill-rule="evenodd" clip-rule="evenodd" d="M17.9814 11.9219H20.4421V11.3582H17.9814V11.9219ZM23.1228 11.9219H25.4834V11.3582H23.1228V11.9219Z" fill="#CCCCCC"/>
<path id="Vector_102" fill-rule="evenodd" clip-rule="evenodd" d="M17.9814 12.5062H20.4421V11.9219H17.9814V12.5062ZM23.1228 12.5062H25.4834V11.9219H23.1228V12.5062Z" fill="#CCCCCC"/>
<path id="Vector_103" fill-rule="evenodd" clip-rule="evenodd" d="M17.9814 13.0898H20.4421V12.5059H17.9814V13.0898ZM23.1228 13.0898H25.4834V12.5059H23.1228V13.0898Z" fill="#CCCCCC"/>
<path id="Vector_104" fill-rule="evenodd" clip-rule="evenodd" d="M17.9814 13.6536H20.4421V13.0898H17.9814V13.6536ZM23.1228 13.6536H25.4834V13.0898H23.1228V13.6536ZM17.9814 14.2375H20.4421V13.6536H17.9814V14.2375ZM23.1228 14.2375H25.4834V13.6536H23.1228V14.2375ZM17.9814 14.8219H20.4421V14.2379H17.9814V14.8219ZM23.1228 14.8219H25.4834V14.2379H23.1228V14.8219Z" fill="#CCCCCC"/>
<path id="Vector_105" fill-rule="evenodd" clip-rule="evenodd" d="M17.9814 15.3855H20.4421V14.8218H17.9814V15.3855ZM23.1228 15.3855H25.4834V14.8218H23.1228V15.3855ZM17.9814 15.9695H20.4421V15.3855H17.9814V15.9695ZM23.1228 15.9695H25.4834V15.3855H23.1228V15.9695Z" fill="#CCCCCC"/>
<path id="Vector_106" fill-rule="evenodd" clip-rule="evenodd" d="M17.9814 16.5537H20.4421V15.9697H17.9814V16.5537ZM23.1228 16.5537H25.4834V15.9697H23.1228V16.5537Z" fill="#CCCCCC"/>
<path id="Vector_107" fill-rule="evenodd" clip-rule="evenodd" d="M17.9814 17.1172H20.4421V16.5535H17.9814V17.1172ZM23.1228 17.1172H25.4834V16.5535H23.1228V17.1172ZM17.9814 17.7016H20.4421V17.1172H17.9814V17.7016ZM23.1228 17.7016H25.4834V17.1172H23.1228V17.7016Z" fill="#CCCCCC"/>
<path id="Vector_108" fill-rule="evenodd" clip-rule="evenodd" d="M17.9806 18.2652H20.4413V17.7014H17.9806V18.2652ZM23.122 18.2652H25.4826V17.7014H23.122V18.2652ZM17.9806 18.8495H20.4413V18.2652H17.9806V18.8495ZM23.122 18.8495H25.4826V18.2652H23.122V18.8495ZM14.8867 19.4331H25.4826V18.8495H23.122V18.9903H20.4413V18.8495H17.9806V18.9903H14.5996L14.8867 19.4331Z" fill="#CCCCCC"/>
<path id="Vector_109" fill-rule="evenodd" clip-rule="evenodd" d="M15.2526 19.9979H25.4826V19.4333H14.8867L15.2526 19.9979ZM15.6309 20.5814H25.4826V19.9979H15.2526L15.6309 20.5814Z" fill="#CCCCCC"/>
<path id="Vector_110" fill-rule="evenodd" clip-rule="evenodd" d="M16.0095 21.1655H25.4825V20.5815H15.6309L16.0095 21.1655ZM18.0807 21.7296H20.4013V21.4072H23.1821V21.7296H25.4825V21.1655H16.0095L16.1403 21.3672H18.0807V21.7296Z" fill="#CCCCCC"/>
<path id="Vector_111" fill-rule="evenodd" clip-rule="evenodd" d="M18.0811 22.3136H20.4017V21.7292H18.0811V22.3136ZM23.1825 22.3136H25.4829V21.7292H23.1825V22.3136Z" fill="#CCCCCC"/>
<path id="Vector_112" fill-rule="evenodd" clip-rule="evenodd" d="M18.0811 22.897H20.4017V22.3135H18.0811V22.897ZM23.1825 22.897H25.4829V22.3135H23.1825V22.897ZM18.0811 23.4608H20.4017V22.897H18.0811V23.4608ZM23.1825 23.4608H25.4829V22.897H23.1825V23.4608Z" fill="#CCCCCC"/>
<path id="Vector_113" fill-rule="evenodd" clip-rule="evenodd" d="M18.0811 24.0453H20.4017V23.4609H18.0811V24.0453ZM23.1825 24.0453H25.4829V23.4609H23.1825V24.0453ZM18.0811 24.6296H20.4017V24.0453H18.0811V24.6296ZM23.1825 24.6296H25.4829V24.0453H23.1825V24.6296ZM18.0811 25.1933H20.4017V24.6296H18.0811V25.1933ZM23.1825 25.1933H25.4829V24.6296H23.1825V25.1933Z" fill="#CCCCCC"/>
<path id="Vector_114" fill-rule="evenodd" clip-rule="evenodd" d="M18.0811 25.7767H20.4017V25.1931H18.0811V25.7767ZM23.1825 25.7767H25.4829V25.1931H23.1825V25.7767Z" fill="#CCCCCC"/>
</g>
</svg>
