<svg width="31" height="19" viewBox="0 0 31 19" fill="none" xmlns="http://www.w3.org/2000/svg">
<g id="Mastercard">
<path id="Left" fill-rule="evenodd" clip-rule="evenodd" d="M15.7371 16.2741C14.17 17.5951 12.1372 18.3925 9.91585 18.3925C4.9594 18.3925 0.941406 14.4223 0.941406 9.52487C0.941406 4.62741 4.9594 0.657227 9.91585 0.657227C12.1372 0.657227 14.17 1.45467 15.7372 2.77564C17.3043 1.45468 19.3371 0.65725 21.5585 0.65725C26.5149 0.65725 30.5329 4.62743 30.5329 9.5249C30.5329 14.4224 26.5149 18.3925 21.5585 18.3925C19.3371 18.3925 17.3043 17.5951 15.7371 16.2741Z" fill="#ED0006"/>
<path id="Right" fill-rule="evenodd" clip-rule="evenodd" d="M15.7373 16.2742C17.6669 14.6477 18.8905 12.2275 18.8905 9.52487C18.8905 6.82227 17.6669 4.40205 15.7373 2.77555C17.3044 1.45464 19.3372 0.657227 21.5585 0.657227C26.515 0.657227 30.533 4.62741 30.533 9.52487C30.533 14.4223 26.515 18.3925 21.5585 18.3925C19.3372 18.3925 17.3044 17.5951 15.7373 16.2742Z" fill="#F9A000"/>
<path id="Middle" fill-rule="evenodd" clip-rule="evenodd" d="M15.7371 16.2741C17.6667 14.6476 18.8903 12.2275 18.8903 9.52488C18.8903 6.82232 17.6667 4.40212 15.7371 2.77563C13.8075 4.40212 12.584 6.82232 12.584 9.52488C12.584 12.2275 13.8075 14.6476 15.7371 16.2741Z" fill="#FF5E00"/>
</g>
</svg>
