<svg width="32" height="12" viewBox="0 0 32 12" fill="none" xmlns="http://www.w3.org/2000/svg">
<path id="visa-logo" fill-rule="evenodd" clip-rule="evenodd" d="M8.22787 10.9887H5.50174L3.45748 2.96033C3.36045 2.59102 3.15443 2.26454 2.85138 2.11066C2.09508 1.72396 1.26169 1.41621 0.352539 1.26099V0.951899H4.74412C5.35022 0.951899 5.80479 1.41621 5.88056 1.95544L6.94123 7.74657L9.66603 0.951899H12.3164L8.22787 10.9887ZM13.8317 10.9887H11.2571L13.3771 0.951899H15.9517L13.8317 10.9887ZM19.2825 3.73243C19.3583 3.19186 19.8128 2.88276 20.3432 2.88276C21.1766 2.80516 22.0844 2.96037 22.842 3.34573L23.2966 1.18477C22.539 0.875674 21.7056 0.720459 20.9493 0.720459C18.4504 0.720459 16.6321 2.1107 16.6321 4.04019C16.6321 5.50804 17.9201 6.27876 18.8293 6.74307C19.8128 7.20604 20.1917 7.51513 20.1159 7.9781C20.1159 8.67255 19.3583 8.98164 18.602 8.98164C17.6928 8.98164 16.7837 8.75016 15.9516 8.36346L15.497 10.5258C16.4062 10.9111 17.3898 11.0663 18.2989 11.0663C21.1008 11.1426 22.842 9.7537 22.842 7.66901C22.842 5.04373 19.2825 4.88985 19.2825 3.73243ZM31.8525 10.9887L29.8082 0.951899H27.6124C27.1578 0.951899 26.7033 1.26099 26.5517 1.72396L22.7663 10.9887H25.4166L25.9456 9.52217H29.2021L29.5052 10.9887H31.8525ZM27.9914 3.65486L28.7477 7.43756H26.6276L27.9914 3.65486Z" fill="white"/>
</svg>
